<?xml version="1.0" encoding="UTF-8" standalone="no"?>
<svg id="dependencyGraph" width="1000" height="900" xmlns="http://www.w3.org/2000/svg"><g transform="translate(500, 50)"><path class="link" d="M 0 600
                        L 0 550
                        L 0 550
                        L 0 560" fill="none" stroke="#4a90e2" stroke-width="2"></path><path class="link" d="M 0 500
                        L 0 450
                        L 0 450
                        L 0 460" fill="none" stroke="#4a90e2" stroke-width="2"></path><path class="link" d="M 0 400
                        L 0 350
                        L 0 350
                        L 0 360" fill="none" stroke="#4a90e2" stroke-width="2"></path><path class="link" d="M 0 300
                        L 0 250
                        L -180 250
                        L -180 260" fill="none" stroke="#4a90e2" stroke-width="2"></path><path class="link" d="M 0 300
                        L 0 250
                        L 0 250
                        L 0 260" fill="none" stroke="#4a90e2" stroke-width="2"></path><path class="link" d="M 0 300
                        L 0 250
                        L 180 250
                        L 180 260" fill="none" stroke="#4a90e2" stroke-width="2"></path><path class="link" d="M 180 200
                        L 180 150
                        L 180 150
                        L 180 160" fill="none" stroke="#4a90e2" stroke-width="2"></path><path class="link" d="M 180 100
                        L 180 50
                        L 180 50
                        L 180 60" fill="none" stroke="#4a90e2" stroke-width="2"></path><g class="node" transform="translate(0, 600)"><rect x="-75" y="0" width="150" height="60" rx="8" ry="8" fill="#ffffff" stroke="#d0d0d0" stroke-width="2" style="cursor: pointer;"></rect><text x="-65" y="20" fill="#666666" font-size="14" font-weight="500">9</text><text x="0" y="35" text-anchor="middle" fill="#333333" font-size="14" font-weight="500">答えるの繰り返しです</text></g><g class="node" transform="translate(0, 500)"><rect x="-75" y="0" width="150" height="60" rx="8" ry="8" fill="#ffffff" stroke="#d0d0d0" stroke-width="2" style="cursor: pointer;"></rect><text x="-65" y="20" fill="#666666" font-size="14" font-weight="500">8</text><text x="0" y="35" text-anchor="middle" fill="#333333" font-size="14" font-weight="500">聞かれたら</text></g><g class="node" transform="translate(0, 400)"><rect x="-75" y="0" width="150" height="60" rx="8" ry="8" fill="#ffffff" stroke="#d0d0d0" stroke-width="2" style="cursor: pointer;"></rect><text x="-65" y="20" fill="#666666" font-size="14" font-weight="500">7</text><text x="0" y="35" text-anchor="middle" fill="#333333" font-size="14" font-weight="500">答える、</text></g><g class="node" transform="translate(0, 300)"><rect x="-75" y="0" width="150" height="60" rx="8" ry="8" fill="#ffffff" stroke="#d0d0d0" stroke-width="2" style="cursor: pointer;"></rect><text x="-65" y="20" fill="#666666" font-size="14" font-weight="500">6</text><text x="0" y="35" text-anchor="middle" fill="#333333" font-size="14" font-weight="500">聞かれたら</text></g><g class="node" transform="translate(-180, 200)"><rect x="-75" y="0" width="150" height="60" rx="8" ry="8" fill="#ffffff" stroke="#d0d0d0" stroke-width="2" style="cursor: pointer;"></rect><text x="-65" y="20" fill="#666666" font-size="14" font-weight="500">1</text><text x="0" y="35" text-anchor="middle" fill="#333333" font-size="14" font-weight="500">私は</text></g><g class="node" transform="translate(0, 200)"><rect x="-75" y="0" width="150" height="60" rx="8" ry="8" fill="#ffffff" stroke="#d0d0d0" stroke-width="2" style="cursor: pointer;"></rect><text x="-65" y="20" fill="#666666" font-size="14" font-weight="500">2</text><text x="0" y="35" text-anchor="middle" fill="#333333" font-size="14" font-weight="500">全体的に</text></g><g class="node" transform="translate(180, 200)"><rect x="-75" y="0" width="150" height="60" rx="8" ry="8" fill="#ffffff" stroke="#d0d0d0" stroke-width="2" style="cursor: pointer;"></rect><text x="-65" y="20" fill="#666666" font-size="14" font-weight="500">5</text><text x="0" y="35" text-anchor="middle" fill="#333333" font-size="14" font-weight="500">MC軍団に</text></g><g class="node" transform="translate(180, 100)"><rect x="-75" y="0" width="150" height="60" rx="8" ry="8" fill="#ffffff" stroke="#d0d0d0" stroke-width="2" style="cursor: pointer;"></rect><text x="-65" y="20" fill="#666666" font-size="14" font-weight="500">4</text><text x="0" y="35" text-anchor="middle" fill="#333333" font-size="14" font-weight="500">ほうで、</text></g><g class="node" transform="translate(180, 0)"><rect x="-75" y="0" width="150" height="60" rx="8" ry="8" fill="#ffffff" stroke="#d0d0d0" stroke-width="2" style="cursor: pointer;"></rect><text x="-65" y="20" fill="#666666" font-size="14" font-weight="500">3</text><text x="0" y="35" text-anchor="middle" fill="#333333" font-size="14" font-weight="500">端っこの</text></g></g></svg>