<?xml version="1.0" encoding="UTF-8" standalone="no"?>
<svg id="dependencyGraph" width="1000" height="850" viewBox="0 0 1000 850" xmlns="http://www.w3.org/2000/svg" xmlns:xlink="http://www.w3.org/1999/xlink"><defs><marker id="arrowhead" markerWidth="10" markerHeight="10" refX="9" refY="3" orient="auto"><polygon points="0 0, 10 3, 0 6" fill="#4a90e2"/></marker></defs><g class="dependency-connection"><path d="M 125 250 L 125 330 L 305 330 L 305 410" fill="none" stroke="#4a90e2" stroke-width="2" marker-end="url(#arrowhead)" class="dependency-line"/></g><g class="dependency-connection"><path d="M 305 250 L 305 330 L 305 330 L 305 410" fill="none" stroke="#4a90e2" stroke-width="2" marker-end="url(#arrowhead)" class="dependency-line"/></g><g class="dependency-connection"><path d="M 485 50 L 485 130 L 485 130 L 485 210" fill="none" stroke="#4a90e2" stroke-width="2" marker-end="url(#arrowhead)" class="dependency-line"/></g><g class="dependency-connection"><path d="M 485 150 L 485 230 L 485 230 L 485 310" fill="none" stroke="#4a90e2" stroke-width="2" marker-end="url(#arrowhead)" class="dependency-line"/></g><g class="dependency-connection"><path d="M 485 250 L 485 330 L 305 330 L 305 410" fill="none" stroke="#4a90e2" stroke-width="2" marker-end="url(#arrowhead)" class="dependency-line"/></g><g class="dependency-connection"><path d="M 305 350 L 305 430 L 305 430 L 305 510" fill="none" stroke="#4a90e2" stroke-width="2" marker-end="url(#arrowhead)" class="dependency-line"/></g><g class="dependency-connection"><path d="M 305 450 L 305 530 L 305 530 L 305 610" fill="none" stroke="#4a90e2" stroke-width="2" marker-end="url(#arrowhead)" class="dependency-line"/></g><g class="dependency-connection"><path d="M 305 550 L 305 630 L 305 630 L 305 710" fill="none" stroke="#4a90e2" stroke-width="2" marker-end="url(#arrowhead)" class="dependency-line"/></g><g class="bunsetsu-box-group" data-id="0" style="cursor: pointer;"><rect x="50" y="250" width="150" height="60" rx="8" ry="8" fill="#ffffff" stroke="#d0d0d0" stroke-width="2" class="bunsetsu-box"/><text x="60" y="270" fill="#666666" font-size="14" font-weight="500" class="bunsetsu-number">1</text><text x="125" y="285" text-anchor="middle" fill="#333333" font-size="14" font-weight="500" class="bunsetsu-text">私は</text></g><g class="bunsetsu-box-group" data-id="1" style="cursor: pointer;"><rect x="230" y="250" width="150" height="60" rx="8" ry="8" fill="#ffffff" stroke="#d0d0d0" stroke-width="2" class="bunsetsu-box"/><text x="240" y="270" fill="#666666" font-size="14" font-weight="500" class="bunsetsu-number">2</text><text x="305" y="285" text-anchor="middle" fill="#333333" font-size="14" font-weight="500" class="bunsetsu-text">全体的に</text></g><g class="bunsetsu-box-group" data-id="2" style="cursor: pointer;"><rect x="410" y="50" width="150" height="60" rx="8" ry="8" fill="#ffffff" stroke="#d0d0d0" stroke-width="2" class="bunsetsu-box"/><text x="420" y="70" fill="#666666" font-size="14" font-weight="500" class="bunsetsu-number">3</text><text x="485" y="85" text-anchor="middle" fill="#333333" font-size="14" font-weight="500" class="bunsetsu-text">端っこの</text></g><g class="bunsetsu-box-group" data-id="3" style="cursor: pointer;"><rect x="410" y="150" width="150" height="60" rx="8" ry="8" fill="#ffffff" stroke="#d0d0d0" stroke-width="2" class="bunsetsu-box"/><text x="420" y="170" fill="#666666" font-size="14" font-weight="500" class="bunsetsu-number">4</text><text x="485" y="185" text-anchor="middle" fill="#333333" font-size="14" font-weight="500" class="bunsetsu-text">ほうで、</text></g><g class="bunsetsu-box-group" data-id="4" style="cursor: pointer;"><rect x="410" y="250" width="150" height="60" rx="8" ry="8" fill="#ffffff" stroke="#d0d0d0" stroke-width="2" class="bunsetsu-box"/><text x="420" y="270" fill="#666666" font-size="14" font-weight="500" class="bunsetsu-number">5</text><text x="485" y="285" text-anchor="middle" fill="#333333" font-size="14" font-weight="500" class="bunsetsu-text">MC軍団に</text></g><g class="bunsetsu-box-group" data-id="5" style="cursor: pointer;"><rect x="230" y="350" width="150" height="60" rx="8" ry="8" fill="#ffffff" stroke="#d0d0d0" stroke-width="2" class="bunsetsu-box"/><text x="240" y="370" fill="#666666" font-size="14" font-weight="500" class="bunsetsu-number">6</text><text x="305" y="385" text-anchor="middle" fill="#333333" font-size="14" font-weight="500" class="bunsetsu-text">聞かれたら</text></g><g class="bunsetsu-box-group" data-id="6" style="cursor: pointer;"><rect x="230" y="450" width="150" height="60" rx="8" ry="8" fill="#ffffff" stroke="#d0d0d0" stroke-width="2" class="bunsetsu-box"/><text x="240" y="470" fill="#666666" font-size="14" font-weight="500" class="bunsetsu-number">7</text><text x="305" y="485" text-anchor="middle" fill="#333333" font-size="14" font-weight="500" class="bunsetsu-text">答える、</text></g><g class="bunsetsu-box-group" data-id="7" style="cursor: pointer;"><rect x="230" y="550" width="150" height="60" rx="8" ry="8" fill="#ffffff" stroke="#d0d0d0" stroke-width="2" class="bunsetsu-box"/><text x="240" y="570" fill="#666666" font-size="14" font-weight="500" class="bunsetsu-number">8</text><text x="305" y="585" text-anchor="middle" fill="#333333" font-size="14" font-weight="500" class="bunsetsu-text">聞かれたら</text></g><g class="bunsetsu-box-group" data-id="8" style="cursor: pointer;"><rect x="230" y="650" width="150" height="60" rx="8" ry="8" fill="#ffffff" stroke="#d0d0d0" stroke-width="2" class="bunsetsu-box"/><text x="240" y="670" fill="#666666" font-size="14" font-weight="500" class="bunsetsu-number">9</text><text x="305" y="685" text-anchor="middle" fill="#333333" font-size="14" font-weight="500" class="bunsetsu-text">答えるの繰り返しです</text></g></svg>